<svg width="28" height="28" viewBox="0 0 28 28" fill="none" xmlns="http://www.w3.org/2000/svg">
<g clip-path="url(#clip0_15_462)">
<path d="M14 7V9.08833C14 9.61333 14.63 9.87 14.9916 9.49666L18.2466 6.24166C18.48 6.00833 18.48 5.64666 18.2466 5.41333L14.9916 2.15833C14.63 1.79666 14 2.05333 14 2.57833V4.66666C8.84329 4.66666 4.66663 8.84333 4.66663 14C4.66663 15.2133 4.89996 16.38 5.33163 17.4417C5.64663 18.2233 6.64996 18.4333 7.24496 17.8383C7.55996 17.5233 7.68829 17.045 7.51329 16.625C7.17496 15.82 6.99996 14.9217 6.99996 14C6.99996 10.1383 10.1383 7 14 7ZM20.755 10.1617C20.44 10.4767 20.3116 10.9667 20.4866 11.375C20.8133 12.1917 21 13.0783 21 14C21 17.8617 17.8616 21 14 21V18.9117C14 18.3867 13.37 18.13 13.0083 18.5033L9.75329 21.7583C9.51996 21.9917 9.51996 22.3533 9.75329 22.5867L13.0083 25.8417C13.37 26.2033 14 25.9467 14 25.4333V23.3333C19.1566 23.3333 23.3333 19.1567 23.3333 14C23.3333 12.7867 23.1 11.62 22.6683 10.5583C22.3533 9.77666 21.35 9.56666 20.755 10.1617Z" fill="white"/>
</g>
<defs>
<clipPath id="clip0_15_462">
<rect width="28" height="28" fill="white"/>
</clipPath>
</defs>
</svg>
