<svg width="24" height="24" viewBox="0 0 24 24" fill="none" xmlns="http://www.w3.org/2000/svg">
<path d="M12 4.25C9.61305 4.25 7.32387 4.99502 5.63604 6.32116C3.94821 7.6473 3 9.44594 3 11.3214C3 13.1968 3.94821 14.9955 5.63604 16.3216C7.32387 17.6478 9.61305 18.3928 12 18.3928V20.357C12 20.6564 12.4122 20.8478 12.7422 20.6977C14.6815 19.8156 19.8091 16.9057 20.8145 12.744C20.8198 12.7204 20.825 12.6969 20.8301 12.6734C20.8737 12.4833 20.9158 12.2931 20.9414 12.0979C20.9791 11.8401 20.9986 11.5809 21 11.3214C21 9.44594 20.0518 7.6473 18.364 6.32116C16.6761 4.99502 14.3869 4.25 12 4.25Z" fill="#C7C7CC"/>
</svg>
