<svg width="20" height="20" viewBox="0 0 20 20" fill="none" xmlns="http://www.w3.org/2000/svg">
<path d="M3.80208 16.0936C3.55122 16.0936 3.34078 16.0086 3.17078 15.8386C3.00137 15.6692 2.91667 15.459 2.91667 15.2082C2.91667 14.9573 3.00137 14.7472 3.17078 14.5778C3.34078 14.4078 3.55122 14.3228 3.80208 14.3228H4.6875V8.12484C4.6875 6.90001 5.05642 5.81154 5.79427 4.85942C6.53212 3.90789 7.49132 3.28456 8.67188 2.98942V2.36963C8.67188 2.00071 8.80115 1.68727 9.05969 1.42932C9.31764 1.17077 9.63108 1.0415 10 1.0415C10.3689 1.0415 10.6824 1.17077 10.9403 1.42932C11.1989 1.68727 11.3281 2.00071 11.3281 2.36963V2.98942C12.5087 3.28456 13.4679 3.90789 14.2057 4.85942C14.9436 5.81154 15.3125 6.90001 15.3125 8.12484V14.3228H16.1979C16.4488 14.3228 16.6589 14.4078 16.8283 14.5778C16.9983 14.7472 17.0833 14.9573 17.0833 15.2082C17.0833 15.459 16.9983 15.6692 16.8283 15.8386C16.6589 16.0086 16.4488 16.0936 16.1979 16.0936H3.80208ZM10 18.7498C9.51302 18.7498 9.09629 18.5766 8.74979 18.2301C8.40271 17.883 8.22917 17.466 8.22917 16.979H11.7708C11.7708 17.466 11.5976 17.883 11.2511 18.2301C10.904 18.5766 10.487 18.7498 10 18.7498ZM6.45833 14.3228H13.5417V8.12484C13.5417 7.15088 13.1949 6.31711 12.5013 5.62354C11.8077 4.92996 10.974 4.58317 10 4.58317C9.02604 4.58317 8.19228 4.92996 7.4987 5.62354C6.80512 6.31711 6.45833 7.15088 6.45833 8.12484V14.3228Z" fill="#8E8E93"/>
<path d="M5.83333 7.8125C5.83333 5.56885 7.65218 3.75 9.89583 3.75C12.1395 3.75 13.9583 5.56884 13.9583 7.8125V14.7917H5.83333V7.8125Z" fill="#8E8E93"/>
</svg>
